<svg xmlns="http://www.w3.org/2000/svg" viewBox="0 0 24 24"><g data-name="File Transfer"><path d="m63.707 8.293-8-8A1.117 1.117 0 0 0 55 0H37a1 1 0 0 0-1 1v32a1 1 0 0 0 1 1h22a1 1 0 0 0 0-2H38V2h16v7a1 1 0 0 0 1 1h7v33a3 3 0 0 1-3 3H33.414l2.293-2.293a1 1 0 0 0-1.414-1.414l-4 4a1 1 0 0 0 0 1.414l4 4a1 1 0 0 0 1.414-1.414L33.414 48H59a5.006 5.006 0 0 0 5-5V9a1.1 1.1 0 0 0-.293-.707zM56 8V3.414L60.586 8z" style="fill:#28282b"/><path d="M41 6h10a1 1 0 0 0 0-2H41a1 1 0 0 0 0 2zM41 10h10a1 1 0 0 0 0-2H41a1 1 0 0 0 0 2zM41 14h18a1 1 0 0 0 0-2H41a1 1 0 0 0 0 2zM41 18h18a1 1 0 0 0 0-2H41a1 1 0 0 0 0 2zM41 22h18a1 1 0 0 0 0-2H41a1 1 0 0 0 0 2zM41 26h18a1 1 0 0 0 0-2H41a1 1 0 0 0 0 2zM41 30h18a1 1 0 0 0 0-2H41a1 1 0 0 0 0 2zM15 34H5a1 1 0 0 0 0 2h10a1 1 0 0 0 0-2zM5 40h10a1 1 0 0 0 0-2H5a1 1 0 0 0 0 2zM23 42H5a1 1 0 0 0 0 2h18a1 1 0 0 0 0-2zM23 46H5a1 1 0 0 0 0 2h18a1 1 0 0 0 0-2zM23 50H5a1 1 0 0 0 0 2h18a1 1 0 0 0 0-2zM23 54H5a1 1 0 0 0 0 2h18a1 1 0 0 0 0-2zM23 58H5a1 1 0 0 0 0 2h18a1 1 0 0 0 0-2z" style="fill:#28282b"/><path d="m33.707 16.293-4-4a1 1 0 0 0-1.414 1.414L30.586 16H5a5.006 5.006 0 0 0-5 5v42a1 1 0 0 0 1 1h26a1 1 0 0 0 1-1V39a1.11 1.11 0 0 0-.293-.707l-8-8A1.109 1.109 0 0 0 19 30H5a1 1 0 0 0 0 2h13v7a1 1 0 0 0 1 1h7v22H2V21a3 3 0 0 1 3-3h25.586l-2.293 2.293a1 1 0 0 0 1.414 1.414l4-4a1 1 0 0 0 0-1.414zM20 38v-4.586L24.586 38z" style="fill:#28282b"/></g></svg>